# xmcd
#
# Track frame offsets: 
#        150
#        17355
#        31285
#        45213
#        55938
#        66530
#        81738
#        94968
#        108985
#        120833
#        132520
#        144158
#        156393
#        177018
#        185998
#
# Disc length: 2616 seconds
#
# Revision: 2
# Processed by: cddbd v1.5.2PL0 Copyright (c) Steve Scherf et al.
# Submitted via: ExactAudioCopy v1.3
#
DISCID=cc0a360f
DTITLE=Various Artist - Country and Western Festival Volume 4
DYEAR=1993
DGENRE=Country
TTITLE0=Gene Watson - Carmen
TTITLE1=Freddie Fender - The Rains Came
TTITLE2=Ed Bruce - If It Was Easy
TTITLE3=Billy 'Crash' Craddock - Heart Of Rock 'N Roll
TTITLE4=Tammy Wynette - Fairytales
TTITLE5=Nitty Gritty Dirt Band - Dance Little Jean
TTITLE6=Freddy Weller - Games People Play
TTITLE7=Tammy Wynette - Crying In The Rain
TTITLE8=Sweethearts Of The Rodeo - Hey Doll Baby
TTITLE9=Johnny Russel - Got No Reason For Going Home
TTITLE10=Becky Hobbs - Oklahoma Heart
TTITLE11=Mickey Gilley - Don't The Girls All Get Prettier At Closing T
TTITLE11=ime
TTITLE12=Gene Watson - Lynn Anderson - Farewell Party - I've Never Lov
TTITLE12=ed Anyone More
TTITLE13=Porter Wagoner - Sugar Foot Rag
TTITLE14=Boxcar Willie - Wabash Cannonball
EXTD=YEAR: 1996
EXTT0=
EXTT1=
EXTT2=
EXTT3=
EXTT4=
EXTT5=
EXTT6=
EXTT7=
EXTT8=
EXTT9=
EXTT10=
EXTT11=
EXTT12=
EXTT13=
EXTT14=
PLAYORDER=
